<svg width="18" height="19" viewBox="0 0 18 19" fill="none" xmlns="http://www.w3.org/2000/svg">
<g filter="url(#filter0_d)">
<path d="M9 0C5.6916 0 3 2.69164 3 6.00004C3 9.30844 5.6916 12 9 12C12.3084 12 15 9.30844 15 6.00004C15 2.69164 12.3084 0 9 0ZM9 10.9091C6.29309 10.9091 4.09091 8.70691 4.09091 6.00004C4.09091 3.29316 6.29309 1.09091 9 1.09091C11.7069 1.09091 13.9091 3.29316 13.9091 6.00004C13.9091 8.70691 11.7069 10.9091 9 10.9091Z" fill="white"/>
<path d="M8.99995 2.54541C8.59901 2.54541 8.27283 2.87181 8.27283 3.27301C8.27283 3.67385 8.59901 3.99996 8.99995 3.99996C9.4009 3.99996 9.72708 3.67385 9.72708 3.27301C9.72708 2.87181 9.4009 2.54541 8.99995 2.54541Z" fill="white"/>
<path d="M9.00004 5.09094C8.69881 5.09094 8.45459 5.33516 8.45459 5.6364V8.90912C8.45459 9.21036 8.69881 9.45458 9.00004 9.45458C9.30128 9.45458 9.5455 9.21036 9.5455 8.90912V5.6364C9.5455 5.33516 9.30128 5.09094 9.00004 5.09094Z" fill="white"/>
</g>
<defs>
<filter id="filter0_d" x="0" y="0" width="18" height="19" filterUnits="userSpaceOnUse" color-interpolation-filters="sRGB">
<feFlood flood-opacity="0" result="BackgroundImageFix"/>
<feColorMatrix in="SourceAlpha" type="matrix" values="0 0 0 0 0 0 0 0 0 0 0 0 0 0 0 0 0 0 127 0"/>
<feOffset dy="4"/>
<feGaussianBlur stdDeviation="1.5"/>
<feColorMatrix type="matrix" values="0 0 0 0 0 0 0 0 0 0 0 0 0 0 0 0 0 0 0.5 0"/>
<feBlend mode="normal" in2="BackgroundImageFix" result="effect1_dropShadow"/>
<feBlend mode="normal" in="SourceGraphic" in2="effect1_dropShadow" result="shape"/>
</filter>
</defs>
</svg>
