<svg width="44" height="30" viewBox="0 0 44 30" fill="none" xmlns="http://www.w3.org/2000/svg">
<g clip-path="url(#clip0)">
<path d="M40.6834 19.853C39.9493 20.8235 32.5821 30.2206 19.8995 30C7.73869 29.7882 0.822513 20.9382 0 19.853C3.73791 15.1225 8.95135 11.772 14.8141 10.3324C14.5081 10.5091 14.2128 10.7035 13.9296 10.9147L13.8058 11.0118C13.5759 11.1882 13.3548 11.3824 13.1425 11.5765C13.1035 11.6198 13.0621 11.6611 13.0187 11.7C12.7979 11.9157 12.5883 12.1424 12.3908 12.3794L12.3465 12.4324C12.1343 12.7059 11.9309 12.9794 11.754 13.2618C11.5769 13.5368 11.4174 13.8226 11.2764 14.1177L11.1703 14.3647C11.0818 14.5765 11.0022 14.7882 10.9315 15C10.9315 15.1059 10.8695 15.203 10.843 15.3088C10.7814 15.5261 10.7341 15.7472 10.7015 15.9706C10.6787 16.0637 10.661 16.1579 10.6484 16.253C10.6025 16.5745 10.5789 16.8988 10.5777 17.2235C10.5777 21.8559 14.929 25.6059 20.3063 25.6059C25.6836 25.6059 30.035 21.8559 30.035 17.2235C30.0337 16.9017 30.0101 16.5803 29.9642 16.2618C29.9642 16.1647 29.9642 16.0677 29.9112 15.9706C29.8767 15.7475 29.8295 15.5265 29.7696 15.3088C29.7696 15.2118 29.7166 15.1059 29.6812 15.0088C29.6458 14.9118 29.5309 14.5765 29.4424 14.3735C29.4124 14.289 29.377 14.2065 29.3363 14.1265C29.2304 13.8509 29.1063 13.5827 28.9648 13.3235V13.2794C28.7825 12.9875 28.5817 12.7075 28.3634 12.4412V12.4412C28.1536 12.1845 27.9292 11.9399 27.6913 11.7088L27.594 11.6206C27.3773 11.4092 27.15 11.2089 26.913 11.0206L26.8068 10.9412C26.5327 10.7382 26.2585 10.5441 25.9224 10.3588C31.7531 11.8232 36.9397 15.1591 40.6834 19.853V19.853ZM20.2267 20.8147C22.6147 20.8147 24.5427 19.1559 24.5427 17.1C24.5427 15.0441 22.6147 13.3853 20.2267 13.3853C17.8388 13.3853 15.9196 15.053 15.9196 17.1C15.9196 19.1471 17.8476 20.8147 20.2267 20.8147Z" fill="black"/>
<path d="M44 5.29412H38.6934V0H36.0402V5.29412H30.7336V7.94118H36.0402V13.2353H38.6934V7.94118H44V5.29412Z" fill="black"/>
</g>
<defs>
<clipPath id="clip0">
<rect width="44" height="30" fill="white"/>
</clipPath>
</defs>
</svg>
