<svg width="68" height="60" viewBox="0 0 68 60" fill="none" xmlns="http://www.w3.org/2000/svg">
<g filter="url(#filter0_d)">
<path d="M27.7851 13.0893C27.1798 11.1308 25.3668 9.79529 23.3159 9.79529H18.2376C16.1812 9.79529 14.3637 11.1395 13.7623 13.1081L4.19702 44.4094C3.77984 45.7694 4.03317 47.2453 4.88108 48.388C5.72656 49.5303 7.06372 50.2048 8.48588 50.2048C10.5016 50.2048 12.2692 48.8607 12.8085 46.9198L14.775 39.8323H26.3459L28.4638 46.8755C29.0575 48.852 30.8765 50.2048 32.944 50.2048C34.4322 50.2048 35.8306 49.4979 36.7115 48.3013C37.5943 47.1037 37.8539 45.5589 37.4139 44.1392L27.7851 13.0893ZM16.0944 32.9985L18.4896 24.4236C19.1482 22.0853 19.7504 19.0294 20.3516 16.63H20.466C21.0674 19.0294 21.7912 22.0262 22.5073 24.4236L25.0263 32.9985H16.0944Z" fill="#AFB0B0"/>
<path d="M63.8677 43.8214V35.4746C63.8677 29.8305 61.3129 25.1167 53.3075 25.1167C50.3356 25.1167 47.8639 25.6616 46.0622 26.3034C44.8648 26.7304 44.206 28.0095 44.5539 29.2318L44.5778 29.3122C44.7605 29.9554 45.2012 30.4952 45.7948 30.8058C46.3867 31.1167 47.079 31.1716 47.7139 30.9573C49.0259 30.5147 50.5304 30.2219 51.9835 30.2219C55.667 30.2219 56.3553 32.0391 56.3553 33.3153V33.6603C47.8598 33.6101 42.2633 36.6043 42.2633 42.8401C42.2633 46.6709 45.1597 50.2039 50.023 50.2039C52.8688 50.2039 55.3209 49.1715 56.8942 47.257H57.0391L57.2321 48.3072C57.3781 49.0927 58.0621 49.6641 58.8624 49.6641H62.3409C62.8033 49.6641 63.2439 49.4722 63.5567 49.134C63.8713 48.7958 64.0306 48.3415 63.9951 47.8815C63.9048 46.6995 63.8677 45.2806 63.8677 43.8214ZM56.5971 40.9248C56.5971 41.3661 56.5501 41.8089 56.4499 42.201C55.9598 43.7232 54.4378 44.9503 52.5717 44.9503C50.9039 44.9503 49.626 44.018 49.626 42.1037C49.626 39.207 52.6718 38.2748 56.5971 38.3228V40.9248Z" fill="#AFB0B0"/>
</g>
<defs>
<filter id="filter0_d" x="0" y="0" width="68" height="68" filterUnits="userSpaceOnUse" color-interpolation-filters="sRGB">
<feFlood flood-opacity="0" result="BackgroundImageFix"/>
<feColorMatrix in="SourceAlpha" type="matrix" values="0 0 0 0 0 0 0 0 0 0 0 0 0 0 0 0 0 0 127 0"/>
<feOffset dy="4"/>
<feGaussianBlur stdDeviation="2"/>
<feColorMatrix type="matrix" values="0 0 0 0 0 0 0 0 0 0 0 0 0 0 0 0 0 0 0.25 0"/>
<feBlend mode="normal" in2="BackgroundImageFix" result="effect1_dropShadow"/>
<feBlend mode="normal" in="SourceGraphic" in2="effect1_dropShadow" result="shape"/>
</filter>
</defs>
</svg>
