<svg width="36" height="36" viewBox="0 0 36 36" fill="none" xmlns="http://www.w3.org/2000/svg">
<g filter="url(#filter0_d)">
<path fill-rule="evenodd" clip-rule="evenodd" d="M20.1149 18L26.5649 11.565H26.5649C27.1531 10.9768 27.1531 10.0232 26.5649 9.43497C25.9767 8.84679 25.0231 8.84679 24.4349 9.43497L17.9999 15.885L11.5649 9.43497C10.9767 8.84679 10.0231 8.84679 9.43491 9.43497C8.84673 10.0232 8.84673 10.9768 9.43491 11.565L15.8849 18L9.43491 24.435C8.84673 25.0184 8.84283 25.9681 9.42621 26.5563C9.4291 26.5592 9.432 26.5621 9.43491 26.565C10.0183 27.1532 10.968 27.157 11.5562 26.5737C11.5591 26.5708 11.562 26.5679 11.5649 26.565L17.9999 20.115L24.4349 26.565C25.0183 27.1532 25.968 27.157 26.5562 26.5737C26.5591 26.5708 26.562 26.5679 26.5649 26.565C27.1531 25.9816 27.157 25.0318 26.5736 24.4437C26.5707 24.4408 26.5678 24.4379 26.5649 24.435L20.1149 18Z" fill="white"/>
</g>
<defs>
<filter id="filter0_d" x="-2" y="0" width="40" height="42" filterUnits="userSpaceOnUse" color-interpolation-filters="sRGB">
<feFlood flood-opacity="0" result="BackgroundImageFix"/>
<feColorMatrix in="SourceAlpha" type="matrix" values="0 0 0 0 0 0 0 0 0 0 0 0 0 0 0 0 0 0 127 0"/>
<feOffset dy="4"/>
<feGaussianBlur stdDeviation="1"/>
<feColorMatrix type="matrix" values="0 0 0 0 0 0 0 0 0 0 0 0 0 0 0 0 0 0 0.15 0"/>
<feBlend mode="normal" in2="BackgroundImageFix" result="effect1_dropShadow"/>
<feBlend mode="normal" in="SourceGraphic" in2="effect1_dropShadow" result="shape"/>
</filter>
</defs>
</svg>
