<svg width="56" height="56" viewBox="0 0 56 56" fill="none" xmlns="http://www.w3.org/2000/svg">
<g clip-path="url(#clip0)" filter="url(#filter0_d)">
<path d="M47.1932 9.81809C42.7484 4.01201 35.9897 0.682007 28.6503 0.682007C23.4904 0.682007 18.5974 2.33974 14.5 5.47622C13.0174 6.61125 11.6762 7.92368 10.5086 9.37224L9.46749 3.47509C9.35349 2.83018 8.73783 2.39887 8.09356 2.51349L4.97968 3.06307C4.66995 3.11777 4.39469 3.29327 4.2143 3.55082C4.0339 3.80853 3.96338 4.12711 4.01809 4.43684L6.4918 18.4495C6.59346 19.0247 7.0937 19.4294 7.65813 19.4294C7.72659 19.4294 7.796 19.4234 7.86573 19.4111L21.8786 16.9374C22.5235 16.8236 22.954 16.2085 22.8402 15.5636L22.2904 12.4497C22.2357 12.14 22.0604 11.8648 21.8027 11.6844C21.545 11.504 21.2264 11.4336 20.9166 11.4882L15.0774 12.519C15.8987 11.5482 16.8284 10.6627 17.8638 9.87011C20.9883 7.47846 24.7194 6.21441 28.654 6.21441C34.2539 6.21441 39.4095 8.75405 42.7995 13.1819C45.6874 16.9543 46.9333 21.6257 46.3078 26.3353C45.6822 31.0451 43.26 35.2293 39.4875 38.1171C36.3542 40.5157 32.6289 41.7836 28.7144 41.7836C27.9245 41.7836 27.1235 41.7304 26.3338 41.6256C21.6242 41.0002 17.4399 38.5782 14.552 34.8055C12.7942 32.5093 11.6128 29.8 11.1355 26.9704C11.0832 26.6604 10.9097 26.3837 10.6534 26.2014C10.3973 26.0191 10.0789 25.9464 9.76884 25.9984L6.65085 26.5244C6.00515 26.6333 5.57004 27.2452 5.67882 27.8909C6.30539 31.6056 7.85419 35.1598 10.1579 38.1691C13.9442 43.1153 19.4303 46.291 25.6051 47.1111C26.6381 47.2483 27.6865 47.3179 28.721 47.3179C33.8572 47.3179 38.7433 45.6556 42.8507 42.5112C47.797 38.7249 50.9727 33.2388 51.7928 27.0639C52.6134 20.8889 50.9798 14.7642 47.1932 9.81809Z" fill="white"/>
</g>
<defs>
<filter id="filter0_d" x="0" y="0" width="56" height="56" filterUnits="userSpaceOnUse" color-interpolation-filters="sRGB">
<feFlood flood-opacity="0" result="BackgroundImageFix"/>
<feColorMatrix in="SourceAlpha" type="matrix" values="0 0 0 0 0 0 0 0 0 0 0 0 0 0 0 0 0 0 127 0"/>
<feOffset dy="4"/>
<feGaussianBlur stdDeviation="2"/>
<feColorMatrix type="matrix" values="0 0 0 0 0 0 0 0 0 0 0 0 0 0 0 0 0 0 0.4 0"/>
<feBlend mode="normal" in2="BackgroundImageFix" result="effect1_dropShadow"/>
<feBlend mode="normal" in="SourceGraphic" in2="effect1_dropShadow" result="shape"/>
</filter>
<clipPath id="clip0">
<rect width="48" height="48" fill="white" transform="translate(4)"/>
</clipPath>
</defs>
</svg>
